<?xml version="1.0" encoding="utf-8"?>
<!-- Generator: Adobe Illustrator 22.1.0, SVG Export Plug-In . SVG Version: 6.00 Build 0)  -->
<svg version="1.1" id="Layer_1" xmlns="http://www.w3.org/2000/svg" xmlns:xlink="http://www.w3.org/1999/xlink" x="0px" y="0px"
	 viewBox="0 0 50 62.5" style="enable-background:new 0 0 50 62.5;" xml:space="preserve">
<path d="M15.8,23.5h18.4v12.1H15.8V23.5z M30.1,23.5H19.9v-5.7c0-2.8,2.3-5.1,5.1-5.1l0,0c2.8,0,5.1,2.3,5.1,5.1V23.5z
	 M25,26.6v5.8 M48.7,21.2c0.2,1.2,0.3,2.5,0.3,3.8c0,13.3-10.7,24-24,24S1,38.3,1,25S11.7,1,25,1c9.3,0,17.4,5.3,21.4,13.1
	 M48.5,3.9l-2.1,10.2L36.2,12"/>
</svg>
