<?xml version="1.0" encoding="utf-8"?>
<!-- Generator: Adobe Illustrator 22.1.0, SVG Export Plug-In . SVG Version: 6.00 Build 0)  -->
<svg version="1.1" id="Layer_1" xmlns="http://www.w3.org/2000/svg" xmlns:xlink="http://www.w3.org/1999/xlink" x="0px" y="0px"
	 viewBox="0 0 50 62.5" style="enable-background:new 0 0 50 62.5;" xml:space="preserve">
<path d="M25,1c11.4,0,20.7,4.3,20.7,9.6s-9.3,9.6-20.7,9.6S4.3,15.9,4.3,10.6S13.6,1,25,1z M45.7,29.9
	c0,5.3-9.3,9.6-20.7,9.6S4.3,35.2,4.3,29.9 M45.7,20.4c0,5.3-9.3,9.6-20.7,9.6S4.3,25.7,4.3,20.4 M45.7,10.6v28.8
	c0,5.3-9.3,9.6-20.7,9.6S4.3,44.7,4.3,39.4V10.6"/>
</svg>
