<?xml version="1.0" encoding="utf-8"?>
<!-- Generator: Adobe Illustrator 22.1.0, SVG Export Plug-In . SVG Version: 6.00 Build 0)  -->
<svg version="1.1" id="Layer_1" xmlns="http://www.w3.org/2000/svg" xmlns:xlink="http://www.w3.org/1999/xlink" x="0px" y="0px"
	 viewBox="0 0 100 125" style="enable-background:new 0 0 100 125;" xml:space="preserve">
<path d="M17.5,93c-2.3,0-4.4-0.9-6-2.5l-2.1-2.1c-1.6-1.6-2.5-3.7-2.5-6c0-2.3,0.9-4.4,2.5-6l42.4-42.2L51.5,33
	c-1.7-7.2,0.3-14.6,5.6-19.8c4-4,9.2-6.2,14.8-6.2c2.9,0,5.8,0.6,8.5,1.8l0.2,0.1l-9.9,9.8c-0.6,0.6-0.9,1.4-0.9,2.2
	c0,0.8,0.3,1.6,0.9,2.2l6.1,6.1c0.6,0.6,1.4,0.9,2.2,0.9c0.8,0,1.6-0.3,2.2-0.9l9.9-9.8l0.1,0.2c3.5,8,1.7,17.1-4.4,23.3
	c-4,4-9.2,6.1-14.8,6.1c-1.7,0-3.4-0.2-5-0.6l-1.1-0.3L23.5,90.5C21.9,92.1,19.8,93,17.5,93L17.5,93z"/>
</svg>
