<svg xmlns="http://www.w3.org/2000/svg" xmlns:xlink="http://www.w3.org/1999/xlink" version="1.1" x="0px" y="0px" viewBox="0 0 70 87.5" style="enable-background:new 0 0 70 70;" xml:space="preserve"><g><g><path d="M37.5295143,54.3132286h-5.0600586c-0.4179688,0-0.791502-0.2597656-0.9374981-0.6513672l-1.9003906-5.1123047    l-4.9433594,2.2744141c-0.3803711,0.1767578-0.8300781,0.0947266-1.125-0.2011719l-3.5727539-3.5732422    c-0.2954102-0.2954102-0.3759766-0.7436523-0.2021484-1.1235352l2.2700195-4.9526367l-5.105957-1.8925781    c-0.3920898-0.1450195-0.6523438-0.519043-0.6523438-0.9375v-5.0600586c0-0.4174805,0.2597656-0.7915039,0.6508789-0.9370117    l5.1035156-1.9008808l-2.2661133-4.9448242c-0.1738281-0.3798828-0.0932617-0.828125,0.2021484-1.1235352l3.5727539-3.5727539    c0.2958984-0.2949219,0.7436523-0.3769531,1.1245117-0.2016602l4.9423828,2.2695313l1.9023438-5.1074219    c0.1455078-0.3911133,0.5195293-0.6508789,0.9370098-0.6508789h5.0600586c0.418457,0,0.7929688,0.2607422,0.9379883,0.6533203    l1.8886719,5.1108398l4.9550781-2.2753906c0.3798828-0.1762695,0.8286133-0.09375,1.1245117,0.2016602l3.5732422,3.5727539    c0.2958984,0.2958984,0.3764648,0.7446289,0.2011719,1.125l-2.2744141,4.9433594l5.1123047,1.9003925    c0.3916016,0.1459961,0.6513672,0.5195313,0.6513672,0.9375v5.0600586c0,0.418457-0.2607422,0.7924805-0.652832,0.9379883    l-5.1147461,1.8920898l2.2783203,4.9511719c0.175293,0.3798828,0.0947266,0.8291016-0.2011719,1.125l-3.5732422,3.5732422    c-0.2954102,0.2958984-0.7441406,0.3779297-1.125,0.2011719l-4.9511719-2.2783203l-1.8920898,5.1147461    C38.3219948,54.0524864,37.9479713,54.3132286,37.5295143,54.3132286z M33.1647682,52.3132286h3.668457l1.8442383-4.9853516    c0.1069336-0.2890625,0.3413086-0.5126953,0.6352539-0.605957c0.184082-0.0585938,0.359375-0.1352539,0.534668-0.21875    c0.2675781-0.1264648,0.5776367-0.1293945,0.847168-0.0048828l4.8193359,2.2177734l2.5883789-2.5883789l-2.2177734-4.8193359    c-0.1240234-0.269043-0.1220703-0.5795898,0.0048828-0.847168c0.0834961-0.175293,0.1601563-0.3505859,0.21875-0.534668    c0.0932617-0.2939453,0.3168945-0.5283203,0.605957-0.6352539l4.9853516-1.8442383v-3.668457l-4.9868164-1.8540058    c-0.2744141-0.1020508-0.4902344-0.3193359-0.590332-0.5942383c-0.0722656-0.1967773-0.1435547-0.3764648-0.2329102-0.5644531    c-0.1269531-0.2675781-0.1289063-0.578125-0.0048828-0.847168l2.2177734-4.8198242l-2.5883789-2.5883789l-4.8095703,2.2084961    c-0.2524414,0.1162109-0.5415039,0.1220703-0.7973633,0.0161133l-0.2348633-0.0991211    c-0.1289063-0.0556641-0.2573242-0.1123047-0.3945313-0.159668c-0.2827148-0.0981445-0.5068359-0.3173828-0.6103516-0.5981445    l-1.8344727-4.9643555h-3.668457l-1.854002,4.9770508c-0.1020508,0.2744141-0.3198242,0.4907227-0.5952148,0.5908203    c-0.2089844,0.0756836-0.4082031,0.1616211-0.6074219,0.2470703c-0.2597656,0.1118164-0.5556641,0.1083984-0.8125-0.0097656    l-4.8100586-2.2084961l-2.5888672,2.5888672l2.2094727,4.8208008c0.1176758,0.2568359,0.1210938,0.5517578,0.0092773,0.8115234    l-0.0488281,0.1132813c-0.0688477,0.1591797-0.137207,0.3149414-0.1982422,0.4838867    c-0.1000977,0.2753906-0.3164063,0.4931641-0.5908203,0.5952148l-4.9770508,1.8540058v3.6694336l4.9755859,1.8442383    c0.2753906,0.1020508,0.4921875,0.3203125,0.5922852,0.5966797c0.0712891,0.1962891,0.1416016,0.3837891,0.230957,0.5712891    c0.1279297,0.2675781,0.1303711,0.5776367,0.0068359,0.847168l-2.2094727,4.8203125l2.5888672,2.5888672l4.8198242-2.2177734    c0.2700195-0.1245117,0.5800781-0.121582,0.847168,0.0048828c0.1879883,0.0893555,0.3676758,0.1606445,0.5644531,0.2329102    c0.2749023,0.1000977,0.4921875,0.315918,0.5942383,0.590332L33.1647682,52.3132286z"/></g><g><path d="M34.9972878,42.162838c-3.6123028,0-6.5507793-2.9384766-6.5507793-6.5507813    c0-3.6118164,2.9384766-6.5502949,6.5507793-6.5502949c3.6118164,0,6.550293,2.9384785,6.550293,6.5502949    C41.5475807,39.2243614,38.6091042,42.162838,34.9972878,42.162838z M34.9972878,31.0617619    c-2.5092773,0-4.5507793,2.0410175-4.5507793,4.5502949s2.041502,4.5507813,4.5507793,4.5507813    s4.550293-2.0415039,4.550293-4.5507813S37.5065651,31.0617619,34.9972878,31.0617619z"/></g><g><g><path d="M17.6652584,52.3171349c-0.2729492,0-0.5444336-0.1108398-0.7416992-0.3291016     c-9.0219727-9.9682617-8.2587891-25.4213886,1.7016602-34.4467773     c7.1352539-6.4648428,17.4389629-8.1254873,26.2465801-4.2309561l2.5244141,1.3095703     c0.4902344,0.2543945,0.6811523,0.8583984,0.4262695,1.3481445c-0.2548828,0.4902334-0.8583984,0.6811514-1.3481445,0.4262686     l-2.4677734-1.2822256c-8.0297852-3.5473633-17.4882793-2.0234375-24.0385723,3.9116201     c-9.1435547,8.2851563-9.8442383,22.4711933-1.5620117,31.6225605c0.3706055,0.4091797,0.3393555,1.0415039-0.0703125,1.4121094     C18.1442623,52.2316856,17.9045162,52.3171349,17.6652584,52.3171349z"/></g><g><path d="M42.4279518,18.0739689c-0.4140625,0-0.8012695-0.2592773-0.9448242-0.6723633     c-0.1811523-0.5214844,0.0947266-1.0913086,0.6166992-1.2729492l3.5625-1.237792l-1.237793-3.5625     c-0.1816406-0.5214844,0.0942383-1.0913086,0.6162109-1.2724609c0.5200195-0.1835938,1.0908203,0.0942383,1.2724609,0.6162109     l1.5664063,4.5068359c0.0874023,0.2504883,0.0712891,0.5253906-0.0444336,0.7636719     c-0.1152344,0.2387686-0.3212891,0.421874-0.5717773,0.5092764l-4.5073242,1.5664063     C42.6476784,18.0559025,42.5368385,18.0739689,42.4279518,18.0739689z"/></g></g><g><g><path d="M34.9850807,58.7717247c-3.334959,0-6.6914043-0.6821289-9.8564434-2.081543l-2.5249023-1.3100586     c-0.4902344-0.2543945-0.6811523-0.8583984-0.4262695-1.3481445c0.2539063-0.4902344,0.8588867-0.6826172,1.3481445-0.4262695     l2.4682617,1.2827148c8.0317364,3.5478516,17.4882793,2.0244141,24.0385723-3.9116211     c9.1430664-8.2856445,9.84375-22.4711933,1.5615234-31.6225605c-0.3706055-0.4091797-0.3393555-1.0415039,0.0703125-1.4121094     c0.4091797-0.3710938,1.0419922-0.3393555,1.4121094,0.0703125c9.0219727,9.9682617,8.2587891,25.4209003-1.7011719,34.4467773     C46.8039284,56.6013145,40.9308815,58.7712364,34.9850807,58.7717247z"/></g><g><path d="M24.6310787,60.0007286c-0.4140625,0-0.8012695-0.2592773-0.9448242-0.6723633l-1.5664063-4.5073242     c-0.0869141-0.2504883-0.0708008-0.5253906,0.0449219-0.7641602s0.3212891-0.4213867,0.5717773-0.5087891l4.5073242-1.565918     c0.5200195-0.1801758,1.0913086,0.0947266,1.2729492,0.6166992c0.1811523,0.5214844-0.0947266,1.0913086-0.6166992,1.2729492     l-3.5625,1.2373047l1.2382813,3.5629883c0.1811523,0.5214844-0.0947266,1.0913086-0.6166992,1.2729492     C24.8508053,59.9826622,24.7399654,60.0007286,24.6310787,60.0007286z"/></g></g></g>
</svg>