<svg xmlns="http://www.w3.org/2000/svg" xmlns:xlink="http://www.w3.org/1999/xlink" version="1.1" x="0px" y="0px" viewBox="0 0 50 62.5" style="enable-background:new 0 0 50 50;" xml:space="preserve"><style type="text/css">
	.st0{fill:none;stroke:#000000;stroke-width:2;stroke-miterlimit:10;}
	.st1{fill:none;stroke:#000000;stroke-width:2;stroke-miterlimit:10;stroke-dasharray:2,3.5;}
	.st2{fill:none;stroke:#000000;stroke-width:2;stroke-miterlimit:10;stroke-dasharray:2,2;}
</style><g><path class="st0" d="M42.4,31.4C42.4,41.1,35,49,25.3,49S7.6,42.9,7.6,33.2c0-3-0.5-9,8.1-16.4   C24.2,9.6,23.7,1,23.7,1s13.4,9.9,17.8,23.6C41.5,24.6,42.4,29,42.4,31.4z"/><path class="st0" d="M26.2,48.9c-1.4,0.2-8.7,0.6-9.4-5.6l-0.1-0.6c-0.3-2.2-0.6-4.8,4.3-10   c2.1-2.2,3.8-4.5,5.1-6.8c2.4,2.6,4.5,5.5,6,8.7c1.2,2.4,1.3,6.3,1.2,7C32.9,45.5,30.1,48.5,26.2,48.9z"/></g>
</svg>