<svg xmlns="http://www.w3.org/2000/svg" xmlns:xlink="http://www.w3.org/1999/xlink" version="1.1" x="0px" y="0px" viewBox="0 0 70 87.5" style="enable-background:new 0 0 70 70;" xml:space="preserve"><style type="text/css">
	.st0{fill:none;stroke:#000000;stroke-miterlimit:10;}
	.st1{fill:none;stroke:#000000;stroke-width:2;stroke-miterlimit:10;}
</style><g><g><g><path d="M56.0649414,55H22.1723633c-1.6542969,0-3-1.3457031-3-3V33.3613281c0-1.6542969,1.3457031-3,3-3h33.8925781     c1.6542969,0,3,1.3457031,3,3V52C59.0649414,53.6542969,57.7192383,55,56.0649414,55z M22.1723633,32.3613281     c-0.5517578,0-1,0.4482422-1,1V52c0,0.5517578,0.4482422,1,1,1h33.8925781c0.5517578,0,1-0.4482422,1-1V33.3613281     c0-0.5517578-0.4482422-1-1-1H22.1723633z"/></g></g><g><g><path d="M20.1186523,39.6630859l-6.5400391-0.0253906c-1.4560547,0-2.6435547-1.1738281-2.6435547-2.6171875V17.6171875     c0-1.4433594,1.1875-2.6171875,2.6474609-2.6171875h34.5976563c1.4599609,0,2.6474609,1.1738281,2.6474609,2.6171875     l0.0185547,13.7001953l-2,0.0019531l-0.0185547-13.7011719C48.8276367,17.2773438,48.5375977,17,48.1801758,17H13.5825195     c-0.3574219,0-0.6474609,0.2773438-0.6474609,0.6171875v19.4033203c0,0.3398438,0.2900391,0.6171875,0.6474609,0.6171875     l6.5439453,0.0253906L20.1186523,39.6630859z"/></g></g><g><g><path d="M47.3569336,45.2978516c-2.8222656,0-5.1191406-2.2626953-5.1191406-5.0429688s2.296875-5.0419922,5.1191406-5.0419922     s5.1181641,2.2617188,5.1181641,5.0419922S50.1791992,45.2978516,47.3569336,45.2978516z M47.3569336,37.2128906     c-1.7197266,0-3.1191406,1.3642578-3.1191406,3.0419922s1.3994141,3.0429688,3.1191406,3.0429688     s3.1181641-1.3652344,3.1181641-3.0429688S49.0766602,37.2128906,47.3569336,37.2128906z"/></g></g><g><g><path d="M40.7661133,45.2939453c-1.3076172,0-2.6162109-0.4892578-3.6123047-1.4667969     c-0.9707031-0.953125-1.5058594-2.2207031-1.5058594-3.5712891s0.5341797-2.6191406,1.5058594-3.5732422     c1.9931641-1.9550781,5.234375-1.9541016,7.2255859,0l-1.4003906,1.4277344     c-1.2216797-1.1972656-3.2050781-1.1972656-4.4248047,0c-0.5849609,0.5742188-0.90625,1.3359375-0.90625,2.1455078     c0,0.8085938,0.3222656,1.5703125,0.90625,2.1435547c1.2197266,1.1962891,3.203125,1.1982422,4.4248047,0l1.4003906,1.4277344     C43.3833008,44.8046875,42.074707,45.2939453,40.7661133,45.2939453z"/></g></g><g><g><rect x="23.519043" y="45.7236328" width="11.5332031" height="2"/></g></g><g><g><rect x="23.4672852" y="48.9594727" width="31.3134766" height="2"/></g></g><g><g><rect x="11.9350586" y="20.6591797" width="37.9111328" height="2"/></g></g></g>
</svg>