<svg xmlns="http://www.w3.org/2000/svg" xmlns:xlink="http://www.w3.org/1999/xlink" version="1.1" x="0px" y="0px" viewBox="0 0 51 63.75" style="enable-background:new 0 0 51 51;" xml:space="preserve"><style type="text/css">
	.st0{fill:none;stroke:#000000;stroke-width:2;stroke-miterlimit:10;}
	.st1{fill:none;stroke:#000000;stroke-width:2;stroke-linejoin:round;stroke-miterlimit:10;}
	.st2{fill:none;stroke:#000000;stroke-width:2;stroke-linecap:round;stroke-linejoin:round;stroke-miterlimit:10;}
</style><g><rect x="12.8" y="12.8" class="st0" width="25.5" height="25.5"/><g><g><line class="st0" x1="34.2" y1="8.5" x2="34.2" y2="1.5"/><line class="st0" x1="28.4" y1="8.5" x2="28.4" y2="1.5"/><line class="st0" x1="22.6" y1="8.5" x2="22.6" y2="1.5"/><line class="st0" x1="16.8" y1="8.5" x2="16.8" y2="1.5"/></g><g><line class="st0" x1="34.2" y1="49.5" x2="34.2" y2="42.5"/><line class="st0" x1="28.4" y1="49.5" x2="28.4" y2="42.5"/><line class="st0" x1="22.6" y1="49.5" x2="22.6" y2="42.5"/><line class="st0" x1="16.8" y1="49.5" x2="16.8" y2="42.5"/></g></g><g><g><line class="st0" x1="8.5" y1="16.8" x2="1.5" y2="16.8"/><line class="st0" x1="8.5" y1="22.6" x2="1.5" y2="22.6"/><line class="st0" x1="8.5" y1="28.4" x2="1.5" y2="28.4"/><line class="st0" x1="8.5" y1="34.2" x2="1.5" y2="34.2"/></g><g><line class="st0" x1="49.5" y1="16.8" x2="42.5" y2="16.8"/><line class="st0" x1="49.5" y1="22.6" x2="42.5" y2="22.6"/><line class="st0" x1="49.5" y1="28.4" x2="42.5" y2="28.4"/><line class="st0" x1="49.5" y1="34.2" x2="42.5" y2="34.2"/></g></g></g>
</svg>