<svg xmlns="http://www.w3.org/2000/svg" xmlns:xlink="http://www.w3.org/1999/xlink" version="1.1" x="0px" y="0px" viewBox="0 0 50 62.5" style="enable-background:new 0 0 50 50;" xml:space="preserve"><style type="text/css">
	.st0{fill:none;stroke:#000000;stroke-width:2;stroke-miterlimit:10;}
	.st1{fill:none;stroke:#000000;stroke-width:2;stroke-miterlimit:10;stroke-dasharray:2,2;}
	.st2{fill:none;stroke:#000000;stroke-width:2;stroke-miterlimit:10;stroke-dasharray:2,2.3;}
	.st3{fill:none;stroke:#000000;stroke-width:2;stroke-miterlimit:10;stroke-dasharray:2,3.3;}
	.st4{fill:none;stroke:#000000;stroke-width:2;stroke-miterlimit:10;stroke-dasharray:2,2.5;}
	.st5{fill:none;stroke:#000000;stroke-width:2;stroke-miterlimit:10;stroke-dasharray:2,3.2;}
	.st6{fill:none;stroke:#000000;stroke-width:2;stroke-miterlimit:10;stroke-dasharray:2,1.8;}
	.st7{fill:none;stroke:#000000;stroke-width:2;stroke-miterlimit:10;stroke-dasharray:2,2.2;}
</style><g><g><g><rect x="15.8" y="23.5" class="st0" width="18.4" height="12.1"/><path class="st0" d="M30.1,23.5H19.9v-5.7c0-2.8,2.3-5.1,5.1-5.1h0c2.8,0,5.1,2.3,5.1,5.1V23.5z"/></g><line class="st6" x1="25" y1="26.6" x2="25" y2="32.4"/></g><g><path class="st0" d="M48.7,21.2c0.2,1.2,0.3,2.5,0.3,3.8c0,13.3-10.7,24-24,24S1,38.3,1,25S11.7,1,25,1c9.3,0,17.4,5.3,21.4,13.1"/><polyline class="st0" points="48.5,3.9 46.4,14.1 36.2,12   "/></g></g>
</svg>