<svg xmlns="http://www.w3.org/2000/svg" xmlns:xlink="http://www.w3.org/1999/xlink" version="1.1" x="0px" y="0px" viewBox="0 0 70 87.5" style="enable-background:new 0 0 70 70;" xml:space="preserve"><style type="text/css">
	.st0{fill:none;stroke:#000000;stroke-width:2;stroke-linecap:round;stroke-linejoin:round;stroke-miterlimit:10;}
	.st1{fill:none;stroke:#000000;stroke-width:2;stroke-miterlimit:10;}
</style><g><g><g><g><g><g><path d="M31.9819336,29.3334961H14.0180664C11.8027344,29.3334961,10,27.5307617,10,25.3154297V14.0180664        C10,11.8027344,11.8027344,10,14.0180664,10h17.9638672C34.1972656,10,36,11.8027344,36,14.0180664v11.2973633        C36,27.5307617,34.1972656,29.3334961,31.9819336,29.3334961z M14.0180664,12C12.9052734,12,12,12.9052734,12,14.0180664        v11.2973633c0,1.112793,0.9052734,2.0180664,2.0180664,2.0180664h17.9638672        C33.0947266,27.3334961,34,26.4282227,34,25.3154297V14.0180664C34,12.9052734,33.0947266,12,31.9819336,12H14.0180664z"/></g></g></g><g><g><g><path d="M26.8188477,33.8334961h-7.6381836v-6.5h7.6381836V33.8334961z M21.1806641,31.8334961h3.6381836v-2.5h-3.6381836        V31.8334961z"/></g></g></g><g><g><g><path d="M28.2973633,33.8334961H17.7026367c-0.5522461,0-1-0.4477539-1-1s0.4477539-1,1-1h10.5947266        c0.5522461,0,1,0.4477539,1,1S28.8496094,33.8334961,28.2973633,33.8334961z"/></g></g></g></g><g><g><g><g><path d="M55.9819336,55.5H38.0180664C35.8027344,55.5,34,53.6972656,34,51.4819336V40.1845703        c0-2.215332,1.8027344-4.0180664,4.0180664-4.0180664h17.9638672C58.1972656,36.1665039,60,37.9692383,60,40.1845703        v11.2973633C60,53.6972656,58.1972656,55.5,55.9819336,55.5z M38.0180664,38.1665039        C36.9052734,38.1665039,36,39.0717773,36,40.1845703v11.2973633C36,52.5947266,36.9052734,53.5,38.0180664,53.5h17.9638672        C57.0947266,53.5,58,52.5947266,58,51.4819336V40.1845703c0-1.112793-0.9052734-2.0180664-2.0180664-2.0180664H38.0180664z"/></g></g></g><g><g><g><path d="M50.8188477,60h-7.6381836v-6.5h7.6381836V60z M45.1806641,58h3.6381836v-2.5h-3.6381836V58z"/></g></g></g><g><g><g><path d="M52.2973633,60H41.7026367c-0.5522461,0-1-0.4477539-1-1s0.4477539-1,1-1h10.5947266c0.5522461,0,1,0.4477539,1,1        S52.8496094,60,52.2973633,60z"/></g></g></g></g><g><g><g><path d="M49.1650391,32.7612305c-0.5522461,0-1-0.4477539-1-1c0-5.4121094-3.855957-10.0546875-9.1679688-11.0390625       c-0.5429688-0.1005859-0.9018555-0.6225586-0.8012695-1.1655273c0.1005859-0.543457,0.6235352-0.9018555,1.1655273-0.8012695       c6.2602539,1.1601563,10.8037109,6.6298828,10.8037109,13.0058594       C50.1650391,32.3134766,49.7172852,32.7612305,49.1650391,32.7612305z"/></g></g></g><g><g><g><path d="M29.0410156,53.6362305c-0.0600586,0-0.121582-0.0053711-0.1831055-0.0166016       c-6.2602539-1.159668-10.8037109-6.6293945-10.8037109-13.0058594c0-0.5522461,0.4477539-1,1-1s1,0.4477539,1,1       c0,5.4125977,3.8554688,10.0551758,9.1679688,11.0390625c0.5429688,0.1005859,0.9018555,0.6225586,0.8012695,1.1655273       C29.934082,53.2998047,29.5136719,53.6362305,29.0410156,53.6362305z"/></g></g></g></g><g><g><g><path d="M49.1650391,32.7612305c-0.5522461,0-1-0.4477539-1-1c0-5.4121094-3.855957-10.0546875-9.1679688-11.0390625      c-0.5429688-0.1005859-0.9018555-0.6225586-0.8012695-1.1655273c0.1005859-0.543457,0.6235352-0.9018555,1.1655273-0.8012695      c6.2602539,1.1601563,10.8037109,6.6298828,10.8037109,13.0058594      C50.1650391,32.3134766,49.7172852,32.7612305,49.1650391,32.7612305z"/></g></g></g><g><g><g><path d="M48.9418945,33.9580078c-0.8198242,0-1.6005859-0.2978516-2.2163086-0.8496094l-3.387207-3.034668      c-0.4111328-0.3681641-0.4458008-1.0004883-0.0771484-1.4121094c0.3686523-0.4106445,1.0004883-0.4467773,1.4121094-0.0771484      l3.387207,3.034668c0.2636719,0.2363281,0.6010742,0.3569336,0.9580078,0.3364258      c0.3540039-0.0195313,0.6791992-0.175293,0.9155273-0.4394531l3.0351563-3.3876953      c0.3676758-0.4106445,1.0004883-0.4467773,1.4121094-0.0771484c0.4111328,0.3681641,0.4458008,1.0004883,0.0771484,1.4121094      l-3.034668,3.387207c-0.5927734,0.6616211-1.4077148,1.0532227-2.2954102,1.1020508      C49.065918,33.9560547,49.0039063,33.9580078,48.9418945,33.9580078z"/></g></g></g><g><g><g><path d="M49.1259766,34.9165039c-0.2373047,0-0.4760742-0.0839844-0.6669922-0.2553711l-5.1206055-4.5874023      c-0.4111328-0.3681641-0.4458008-1.0004883-0.0771484-1.4121094c0.3686523-0.4106445,1.0004883-0.4467773,1.4121094-0.0771484      l4.3754883,3.9199219l3.9204102-4.3759766c0.3676758-0.4106445,1.0004883-0.4467773,1.4121094-0.0771484      c0.4111328,0.3681641,0.4458008,1.0004883,0.0771484,1.4121094l-4.5874023,5.1206055      C49.6738281,34.8041992,49.4003906,34.9165039,49.1259766,34.9165039z"/></g></g></g><g><g><g><path d="M29.0410156,53.6362305c-0.0600586,0-0.121582-0.0053711-0.1831055-0.0166016      c-6.2602539-1.159668-10.8037109-6.6293945-10.8037109-13.0058594c0-0.5522461,0.4477539-1,1-1s1,0.4477539,1,1      c0,5.4125977,3.8554688,10.0551758,9.1679688,11.0390625c0.5429688,0.1005859,0.9018555,0.6225586,0.8012695,1.1655273      C29.934082,53.2998047,29.5136719,53.6362305,29.0410156,53.6362305z"/></g></g></g><g><g><g><path d="M14.5053711,44.5791016c-0.2373047,0-0.4760742-0.0839844-0.6665039-0.2553711      c-0.4116211-0.3681641-0.4462891-1.0004883-0.0776367-1.4116211l3.0341797-3.387207      c1.2246094-1.3676758,3.3310547-1.4829102,4.6982422-0.2583008l3.387207,3.034668      c0.4116211,0.3681641,0.4462891,1.0004883,0.0776367,1.4116211c-0.3681641,0.4116211-1.0009766,0.4467773-1.4116211,0.0776367      l-3.3876953-3.034668c-0.5454102-0.4873047-1.3852539-0.4414063-1.8745117,0.1035156l-3.0341797,3.3867188      C15.0532227,44.4667969,14.7797852,44.5791016,14.5053711,44.5791016z"/></g></g></g><g><g><g><path d="M14.5053711,44.5791016c-0.2373047,0-0.4760742-0.0839844-0.6665039-0.2553711      c-0.4116211-0.3681641-0.4462891-1.0004883-0.0776367-1.4116211l4.5869141-5.1206055      c0.1767578-0.1977539,0.4248047-0.3168945,0.6899414-0.331543c0.2670898-0.0141602,0.5244141,0.0766602,0.7216797,0.2539063      l5.1210938,4.5874023c0.4116211,0.3681641,0.4462891,1.0004883,0.0776367,1.4116211      c-0.3681641,0.4116211-1.0009766,0.4467773-1.4116211,0.0776367l-4.3764648-3.9199219l-3.9199219,4.3754883      C15.0532227,44.4667969,14.7797852,44.5791016,14.5053711,44.5791016z"/></g></g></g></g>
</svg>