<svg xmlns="http://www.w3.org/2000/svg" xmlns:xlink="http://www.w3.org/1999/xlink" version="1.1" x="0px" y="0px" viewBox="0 0 70 87.5" style="enable-background:new 0 0 70 70;" xml:space="preserve"><g><g><g><path d="M51.2666016,39.5179825h-2.8251953c-0.5527344,0-1-0.4477539-1-1s0.4472656-1,1-1h2.3574219l2.7197266-3.2587891     c0.3525391-0.4238281,0.984375-0.4819336,1.4082031-0.1269531c0.4238281,0.3535156,0.4814453,0.984375,0.1269531,1.4082031     l-3.0195313,3.6181641C51.8447266,39.3861465,51.5634766,39.5179825,51.2666016,39.5179825z"/></g><g><path d="M54.6875,47.8827286c-0.2382813,0-0.4765625-0.0839844-0.6669922-0.2553711l-3.4726563-3.1113281h-2.2646484     c-0.5527344,0-1-0.4477539-1-1s0.4472656-1,1-1h2.6474609c0.2460938,0,0.484375,0.0908203,0.6669922,0.2553711     l3.7568359,3.3666992c0.4121094,0.3686523,0.4462891,1.0004883,0.078125,1.4121094     C55.234375,47.7704239,54.9619141,47.8827286,54.6875,47.8827286z"/></g><g><path d="M54.2861328,52.5336075c-0.234375,0-0.4697266-0.081543-0.6591797-0.2480469l-3.3984375-2.9799805h-3.0546875     c-0.5527344,0-1-0.4477539-1-1s0.4472656-1,1-1h3.4306641c0.2421875,0,0.4765625,0.0883789,0.6591797,0.2480469     l3.6816406,3.2280273c0.4150391,0.3642578,0.4570313,0.9960938,0.0927734,1.4111328     C54.8408203,52.4183731,54.5634766,52.5336075,54.2861328,52.5336075z"/></g><g><path d="M21.5576172,39.5179825h-2.8242188c-0.296875,0-0.578125-0.1313477-0.7675781-0.359375l-3.0205078-3.6181641     c-0.3544922-0.4238281-0.296875-1.0541992,0.1269531-1.4082031c0.4238281-0.3549805,1.0556641-0.296875,1.4082031,0.1269531     l2.7207031,3.2587891h2.3564453c0.5527344,0,1,0.4477539,1,1S22.1103516,39.5179825,21.5576172,39.5179825z"/></g><g><path d="M15.3125,47.8827286c-0.2744141,0-0.546875-0.1123047-0.7451172-0.3325195     c-0.3681641-0.4116211-0.3339844-1.043457,0.078125-1.4121094l3.7568359-3.3666992     c0.1826172-0.1645508,0.4208984-0.2553711,0.6669922-0.2553711h2.6474609c0.5527344,0,1,0.4477539,1,1s-0.4472656,1-1,1     h-2.2646484l-3.4726563,3.1113281C15.7890625,47.7987442,15.5507813,47.8827286,15.3125,47.8827286z"/></g><g><path d="M15.7128906,52.5336075c-0.2773438,0-0.5546875-0.1152344-0.7519531-0.3408203     c-0.3642578-0.4155273-0.3222656-1.0473633,0.0927734-1.4111328l3.6826172-3.2280273     c0.1826172-0.159668,0.4169922-0.2480469,0.6591797-0.2480469h3.4296875c0.5527344,0,1,0.4477539,1,1s-0.4472656,1-1,1     h-3.0537109l-3.3994141,2.9799805C16.1826172,52.4520645,15.9472656,52.5336075,15.7128906,52.5336075z"/></g></g><g><path d="M34.9990234,60.0004044c-0.5527344,0-1-0.4477539-1-1V27.4330235c0-0.5522461,0.4472656-1,1-1h8.8466797    c1.0380859,0,2.0166016,0.581543,2.5537109,1.5170898c1.7441406,3.0390625,2.7949219,6.6728497,3.0390625,10.5087872    c0.0390625,0.5634766,0.0585938,1.1420898,0.0585938,1.7294922c0,1.1464844-0.0751953,2.3105469-0.2226563,3.4599609    c-0.2236328,1.7558594-0.6132813,3.4360352-1.1582031,4.9921875    C45.7480469,55.5389786,40.5986328,60.0004044,34.9990234,60.0004044z M35.9990234,28.4330235v29.5087872    c4.3447266-0.5092773,8.2871094-4.3037109,10.2275391-9.956543c0.5009766-1.4291992,0.8583984-2.972168,1.0634766-4.5908203    c0.1376953-1.0664063,0.2070313-2.1445313,0.2070313-3.2060547c0-0.5405273-0.0175781-1.0722656-0.0546875-1.5966797    c-0.2246094-3.5380859-1.1855469-6.8715801-2.7773438-9.6459942c-0.1816406-0.315918-0.4960938-0.5126953-0.8193359-0.5126953    H35.9990234z"/></g><g><path d="M34.9990234,60.0004044c-5.3232422,0-10.0302734-4.3623047-12.2841797-11.3847656    c-0.5029297-1.5439453-0.8652344-3.2202148-1.0742188-4.9770508c-0.1367188-1.1420898-0.2060547-2.3032227-0.2060547-3.4501953    c0-0.5849609,0.0185547-1.1611328,0.0537109-1.7285156c0.2265625-3.8232422,1.203125-7.4497051,2.8242188-10.4829082    c0.5244141-0.9560547,1.4619141-1.5439453,2.4521484-1.5439453h8.234375c0.5527344,0,1,0.4477539,1,1v31.5673809    C35.9990234,59.5526505,35.5517578,60.0004044,34.9990234,60.0004044z M26.7646484,28.4330235    c-0.2597656,0-0.5253906,0.1899414-0.6933594,0.4960938c-1.4804688,2.7709961-2.3769531,6.1118145-2.5869141,9.6523418    c-0.0332031,0.5297852-0.0498047,1.0639648-0.0498047,1.6069336c0,1.0678711,0.0644531,2.1484375,0.1923828,3.2128906    c0.1933594,1.6279297,0.5263672,3.1748047,0.9912109,4.5986328c1.7998047,5.6088867,5.4101563,9.3837891,9.3808594,9.9316406    V28.4330235H26.7646484z"/></g><g><path d="M43.1210938,28.4330235H26.8857422c-0.3857422,0-0.7363281-0.2211914-0.9023438-0.5693359    c-0.6523438-1.3652344-0.9824219-2.8237305-0.9824219-4.3354492c0-6.6069336,6.4931641-6.8925781,8.6269531-6.9863281    c0.9023438-0.0351563,1.8535156-0.0351563,2.7460938,0c2.140625,0.0981445,8.6318359,0.3969727,8.6318359,6.9863281    c0,1.5117188-0.3300781,2.9702148-0.9824219,4.3354492C43.8574219,28.211832,43.5068359,28.4330235,43.1210938,28.4330235z     M27.5419922,26.4330235h14.9228516c0.359375-0.9267578,0.5410156-1.9013672,0.5410156-2.9047852    c0-3.3237305-1.9462891-4.7685547-6.7167969-4.9882813c-0.828125-0.0332031-1.7363281-0.0332031-2.578125,0    c-4.7646484,0.2099609-6.7099609,1.6552734-6.7099609,4.9882813    C27.0009766,24.5316563,27.1826172,25.5062656,27.5419922,26.4330235z"/></g><g><path d="M36.3339844,18.5409336c-0.1533203,0-0.3085938-0.0351563-0.4541016-0.109375    c-0.4912109-0.2509766-0.6865234-0.8535156-0.4355469-1.3452148c2.9042969-5.6879883,6.7236328-8.0727539,10.7548828-6.7143555    c0.5234375,0.1767578,0.8046875,0.7436523,0.6279297,1.2670898c-0.1757813,0.5234375-0.7412109,0.8066406-1.2666016,0.628418    c-3.8115234-1.2832031-6.6376953,2.4047852-8.3349609,5.7280273    C37.0488281,18.3417149,36.6982422,18.5409336,36.3339844,18.5409336z"/></g><g><path d="M33.6728516,18.5409336c-0.3642578,0-0.7148438-0.1992188-0.8916016-0.5454102    c-1.6972656-3.3232422-4.5195313-7.0112305-8.3349609-5.7280273c-0.5224609,0.1772461-1.0898438-0.105957-1.2666016-0.628418    c-0.1767578-0.5229492,0.1044922-1.090332,0.6279297-1.2670898c4.0244141-1.3574219,7.8496094,1.0244141,10.7548828,6.7143555    c0.2509766,0.4916992,0.0556641,1.0942383-0.4355469,1.3452148    C33.9814453,18.5057774,33.8261719,18.5409336,33.6728516,18.5409336z"/></g></g>
</svg>