<svg xmlns="http://www.w3.org/2000/svg" xmlns:xlink="http://www.w3.org/1999/xlink" version="1.1" x="0px" y="0px" viewBox="0 0 70 87.5" style="enable-background:new 0 0 70 70;" xml:space="preserve"><style type="text/css">
	.st0{fill:none;stroke:#000000;stroke-width:2;stroke-linecap:round;stroke-linejoin:round;stroke-miterlimit:10;}
	.st1{fill:none;stroke:#000000;stroke-width:2;stroke-miterlimit:10;}
</style><g><g><g><g><g><path d="M55.7773438,35.4157715c-1.9204102,0-3.4824219-1.5620117-3.4824219-3.4824219       s1.5620117-3.4829102,3.4824219-3.4829102s3.4829102,1.5625,3.4829102,3.4829102S57.6977539,35.4157715,55.7773438,35.4157715z        M55.7773438,30.4504395c-0.8173828,0-1.4824219,0.6650391-1.4824219,1.4829102       c0,0.8173828,0.6650391,1.4824219,1.4824219,1.4824219c0.8178711,0,1.4829102-0.6650391,1.4829102-1.4824219       C57.2602539,31.1154785,56.5952148,30.4504395,55.7773438,30.4504395z"/></g></g></g><g><g><g><path d="M48.9140625,52.2092285c-1.9204102,0-3.4824219-1.5620117-3.4824219-3.4824219       s1.5620117-3.4824219,3.4824219-3.4824219s3.4824219,1.5620117,3.4824219,3.4824219       S50.8344727,52.2092285,48.9140625,52.2092285z M48.9140625,47.2443848c-0.8173828,0-1.4824219,0.6650391-1.4824219,1.4824219       s0.6650391,1.4824219,1.4824219,1.4824219s1.4824219-0.6650391,1.4824219-1.4824219       S49.7314453,47.2443848,48.9140625,47.2443848z"/></g></g></g><g><g><g><path d="M31.2441406,59.2189941c-1.9204102,0-3.4824219-1.5625-3.4824219-3.4829102s1.5620117-3.4824219,3.4824219-3.4824219       s3.4824219,1.5620117,3.4824219,3.4824219S33.1645508,59.2189941,31.2441406,59.2189941z M31.2441406,54.2536621       c-0.8173828,0-1.4824219,0.6650391-1.4824219,1.4824219c0,0.8178711,0.6650391,1.4829102,1.4824219,1.4829102       s1.4824219-0.6650391,1.4824219-1.4829102C32.7265625,54.9187012,32.0615234,54.2536621,31.2441406,54.2536621z"/></g></g></g><g><g><g><path d="M14.222168,51.4069824c-1.9204102,0-3.4824219-1.5620117-3.4824219-3.4824219s1.5620117-3.4824219,3.4824219-3.4824219       s3.4824219,1.5620117,3.4824219,3.4824219S16.1425781,51.4069824,14.222168,51.4069824z M14.222168,46.4421387       c-0.8173828,0-1.4824219,0.6650391-1.4824219,1.4824219s0.6650391,1.4824219,1.4824219,1.4824219       s1.4824219-0.6650391,1.4824219-1.4824219S15.0395508,46.4421387,14.222168,46.4421387z"/></g></g></g><g><g><g><path d="M14.7426758,17.7458496c-1.9204102,0-3.4824219-1.5620117-3.4824219-3.4824219       s1.5620117-3.4824219,3.4824219-3.4824219s3.4824219,1.5620117,3.4824219,3.4824219       S16.6630859,17.7458496,14.7426758,17.7458496z M14.7426758,12.7810059c-0.8173828,0-1.4824219,0.6650391-1.4824219,1.4824219       s0.6650391,1.4824219,1.4824219,1.4824219s1.4824219-0.6650391,1.4824219-1.4824219       S15.5600586,12.7810059,14.7426758,12.7810059z"/></g></g></g></g><g><g><g><path d="M26.5454102,27.5349121c-0.2587891,0-0.5175781-0.1000977-0.7133789-0.2988281L15.7084961,16.935791      c-0.3867188-0.394043-0.3813477-1.0273438,0.012207-1.4145508c0.3935547-0.3876953,1.0268555-0.3813477,1.4145508,0.012207      l10.1235352,10.300293c0.3867188,0.394043,0.3813477,1.0273438-0.012207,1.4145508      C27.0517578,27.4396973,26.7983398,27.5349121,26.5454102,27.5349121z"/></g></g></g><g><g><g><path d="M53.2963867,32.9333496c-0.0463867,0-0.0932617-0.0029297-0.140625-0.0097656l-15.5546875-2.1879883      c-0.546875-0.0771484-0.9282227-0.5825195-0.8510742-1.1293945s0.5810547-0.9291992,1.1293945-0.8510742l15.5546875,2.1879883      c0.546875,0.0771484,0.9282227,0.5825195,0.8510742,1.1293945      C54.2148438,32.5725098,53.7866211,32.9333496,53.2963867,32.9333496z"/></g></g></g><g><g><g><path d="M46.9433594,47.9016113c-0.2744141,0-0.5478516-0.1123047-0.7451172-0.3325195L34.9155273,34.9782715      c-0.3686523-0.4116211-0.3339844-1.043457,0.0771484-1.4121094c0.4121094-0.3691406,1.0439453-0.3334961,1.4121094,0.0771484      L47.6875,46.2341309c0.3686523,0.4116211,0.3339844,1.043457-0.0771484,1.4121094      C47.4194336,47.817627,47.1806641,47.9016113,46.9433594,47.9016113z"/></g></g></g><g><g><g><path d="M31.3383789,54.2390137c-0.5439453,0-0.9897461-0.4360352-0.9995117-0.9819336l-0.3100586-17.2446289      c-0.0097656-0.5522461,0.4296875-1.0078125,0.9819336-1.0180664c0.550293-0.0117188,1.0083008,0.4296875,1.0180664,0.9819336      l0.3100586,17.2446289c0.0097656,0.5522461-0.4296875,1.0078125-0.9819336,1.0180664      C31.3505859,54.2390137,31.3447266,54.2390137,31.3383789,54.2390137z"/></g></g></g><g><g><g><path d="M15.8500977,47.1501465c-0.2211914,0-0.4438477-0.0727539-0.6289063-0.2231445      c-0.4291992-0.3476563-0.4951172-0.9775391-0.1474609-1.40625L25.7685547,32.322998      c0.3481445-0.4291992,0.9780273-0.4956055,1.40625-0.1474609c0.4291992,0.3476563,0.4951172,0.9775391,0.1474609,1.40625      L16.6274414,46.779541C16.4296875,47.0236816,16.1411133,47.1501465,15.8500977,47.1501465z"/></g></g></g><g><g><g><path d="M31.6821289,36.8029785c-3.8916016,0-7.0576172-3.1660156-7.0576172-7.0576172      c0-3.8920898,3.1660156-7.0581055,7.0576172-7.0581055c3.8920898,0,7.0581055,3.1660156,7.0581055,7.0581055      C38.7402344,33.6369629,35.5742188,36.8029785,31.6821289,36.8029785z M31.6821289,24.6872559      c-2.7885742,0-5.0576172,2.269043-5.0576172,5.0581055c0,2.7885742,2.269043,5.0576172,5.0576172,5.0576172      c2.7890625,0,5.0581055-2.269043,5.0581055-5.0576172C36.7402344,26.9562988,34.4711914,24.6872559,31.6821289,24.6872559z"/></g></g></g></g>
</svg>