<svg xmlns="http://www.w3.org/2000/svg" xmlns:xlink="http://www.w3.org/1999/xlink" version="1.1" x="0px" y="0px" viewBox="0 0 51 63.75" style="enable-background:new 0 0 51 51;" xml:space="preserve"><style type="text/css">
	.st0{fill:none;stroke:#000000;stroke-width:2;stroke-miterlimit:10;}
	.st1{fill:none;stroke:#000000;stroke-width:2;stroke-linejoin:round;stroke-miterlimit:10;}
	.st2{fill:none;stroke:#000000;stroke-width:2;stroke-linecap:round;stroke-linejoin:round;stroke-miterlimit:10;}
</style><g><path class="st0" d="M49.5,28.4v-5.8l-5.3-0.9c-0.5-2.5-1.5-4.7-2.8-6.8l3.1-4.4l-4.1-4.1l-4.4,3.1c-2-1.3-4.3-2.3-6.8-2.8   l-0.9-5.3h-5.8l-0.9,5.3c-2.5,0.5-4.7,1.5-6.8,2.8l-4.4-3.1l-4.1,4.1l3.1,4.4c-1.3,2-2.3,4.3-2.8,6.8l-5.3,0.9v5.8l5.3,0.9   c0.5,2.5,1.5,4.7,2.8,6.8l-3.1,4.4l4.1,4.1l4.4-3.1c2,1.3,4.3,2.3,6.8,2.8l0.9,5.3h5.8l0.9-5.3c2.5-0.5,4.7-1.5,6.8-2.8l4.4,3.1   l4.1-4.1l-3.1-4.4c1.3-2,2.3-4.3,2.8-6.8L49.5,28.4z"/><circle class="st0" cx="25.5" cy="25.5" r="9.8"/></g>
</svg>