<svg xmlns="http://www.w3.org/2000/svg" xmlns:xlink="http://www.w3.org/1999/xlink" version="1.1" x="0px" y="0px" viewBox="0 0 70 87.5" style="enable-background:new 0 0 70 70;" xml:space="preserve"><style type="text/css">
	.st0{fill:none;stroke:#000000;stroke-width:2;stroke-linecap:round;stroke-linejoin:round;stroke-miterlimit:10;}
	.st1{fill:none;stroke:#000000;stroke-width:2;stroke-miterlimit:10;}
</style><g><g><g><g><g><g><path d="M55,25.4262695H38.9179688c-1.3037109,0-2.3642578-1.0292969-2.3642578-2.2949219v-9.8681641        c0-1.265625,1.0605469-2.2949219,2.3642578-2.2949219H55c1.3037109,0,2.3642578,1.0292969,2.3642578,2.2949219v9.8681641        C57.3642578,24.3969727,56.3037109,25.4262695,55,25.4262695z M38.9179688,12.9682617        c-0.1972656,0-0.3642578,0.1347656-0.3642578,0.2949219v9.8681641c0,0.1601563,0.1669922,0.2949219,0.3642578,0.2949219H55        c0.1972656,0,0.3642578-0.1347656,0.3642578-0.2949219v-9.8681641c0-0.1601563-0.1669922-0.2949219-0.3642578-0.2949219        H38.9179688z"/></g></g></g></g><g><g><g><g><path d="M31.0820313,50.0483398H14.9995117c-1.3032227,0-2.3637695-1.0292969-2.3637695-2.2949219v-9.8681641        c0-1.265625,1.0605469-2.2949219,2.3637695-2.2949219h16.0825195c1.3032227,0,2.3637695,1.0292969,2.3637695,2.2949219        v9.8681641C33.4458008,49.019043,32.3852539,50.0483398,31.0820313,50.0483398z M14.9995117,37.590332        c-0.1972656,0-0.3637695,0.1347656-0.3637695,0.2949219v9.8681641c0,0.1601563,0.1665039,0.2949219,0.3637695,0.2949219        h16.0825195c0.1972656,0,0.3637695-0.1347656,0.3637695-0.2949219v-9.8681641        c0-0.1601563-0.1665039-0.2949219-0.3637695-0.2949219H14.9995117z"/></g></g></g><g><g><g><path d="M32.7172852,59.0317383H13.3637695C12.0605469,59.0317383,11,58.0620117,11,56.8696289v-2.8447266        c0-1.1923828,1.0605469-2.1621094,2.3637695-2.1621094h7.3359375c0.2739258,0,0.5356445,0.1123047,0.7246094,0.3105469        c0.1884766,0.1982422,0.2875977,0.4658203,0.2739258,0.7392578c-0.0009766,0.0205078-0.0039063,0.0517578-0.0073242,0.0820313        c0.0327148,0.5244141,0.6376953,0.9589844,1.3496094,0.9589844c0.7128906,0,1.3178711-0.4355469,1.3500977-0.9599609        c-0.003418-0.03125-0.0063477-0.0615234-0.0073242-0.0810547c-0.0136719-0.2734375,0.0854492-0.5410156,0.2739258-0.7392578        c0.1889648-0.1982422,0.4506836-0.3105469,0.7246094-0.3105469h7.3354492        c1.3037109,0,2.3642578,0.9697266,2.3642578,2.1621094v2.8447266        C35.081543,58.0620117,34.0209961,59.0317383,32.7172852,59.0317383z M13.3637695,53.862793        c-0.2329102,0-0.3579102,0.1240234-0.3637695,0.1621094v2.8447266        c0.0058594,0.0380859,0.1308594,0.1621094,0.3637695,0.1621094h19.3535156        c0.2319336,0,0.3579102-0.1240234,0.3642578-0.1621094v-2.8447266        c-0.0063477-0.0380859-0.1323242-0.1621094-0.3642578-0.1621094h-6.4833984        c-0.4321289,1.2109375-1.7001953,2.0908203-3.1933594,2.0908203c-1.4926758,0-2.7607422-0.8798828-3.1928711-2.0908203        H13.3637695z"/></g></g></g></g><g><g><g><path d="M21.0332031,31.8256836c-0.5522461,0-1-0.4472656-1-1v-5.0068359c0-4.7539063,3.8671875-8.6210938,8.6210938-8.6210938       h3.8364258c0.5522461,0,1,0.4472656,1,1s-0.4477539,1-1,1h-3.8364258c-3.6508789,0-6.6210938,2.9697266-6.6210938,6.6210938       v5.0068359C22.0332031,31.378418,21.5854492,31.8256836,21.0332031,31.8256836z"/></g></g></g><g><g><g><path d="M40.9213867,51.8920898h-3.8359375c-0.5522461,0-1-0.4472656-1-1s0.4477539-1,1-1h3.8359375       c3.6508789,0,6.6210938-2.9697266,6.6210938-6.6210938v-5.0068359c0-0.5527344,0.4477539-1,1-1s1,0.4472656,1,1v5.0068359       C49.5424805,48.0249023,45.675293,51.8920898,40.9213867,51.8920898z"/></g></g></g></g><g><g><g><path d="M56.6357422,34.409668H37.2822266c-1.3037109,0-2.3642578-0.9697266-2.3642578-2.1621094v-2.84375      c0-1.1923828,1.0605469-2.1621094,2.3642578-2.1621094h19.3535156C57.9394531,27.2416992,59,28.2114258,59,29.4038086v2.84375      C59,33.4399414,57.9394531,34.409668,56.6357422,34.409668z M37.2822266,29.2416992      c-0.2421875,0-0.3642578,0.1347656-0.3642578,0.1621094v2.84375c0.0063477,0.0380859,0.1323242,0.1621094,0.3642578,0.1621094      h19.3535156c0.2319336,0,0.3579102-0.1240234,0.3642578-0.1621094v-2.84375      c0-0.0273438-0.1220703-0.1621094-0.3642578-0.1621094H37.2822266z"/></g></g></g></g>
</svg>