<svg xmlns="http://www.w3.org/2000/svg" xmlns:xlink="http://www.w3.org/1999/xlink" version="1.1" x="0px" y="0px" viewBox="0 0 70 87.5" style="enable-background:new 0 0 70 70;" xml:space="preserve"><style type="text/css">
	.st0{fill:none;stroke:#000000;stroke-width:2;stroke-linecap:round;stroke-linejoin:round;stroke-miterlimit:10;}
</style><g><g><path d="M19.6771832,67.0128174c-2.5800781,0-5.1835938-0.6015625-7.6005859-1.8378906    c-0.2851563-0.1455078-0.4833984-0.4189453-0.5332031-0.7353516c-0.0498047-0.3154297,0.0546875-0.6357422,0.28125-0.8623047    l10.2539063-10.2539063c0.7216797-0.7216797,1.1191406-1.6806641,1.1191406-2.7011719s-0.3974609-1.9794922-1.1191406-2.7011719    c-1.4892578-1.4892578-3.9121094-1.4912109-5.4033203,0L6.4213238,58.1749268    c-0.2255859,0.2265625-0.5478516,0.3300781-0.8623047,0.28125c-0.3164063-0.0507813-0.5898438-0.2480469-0.7353516-0.5332031    c-3.5234375-6.8925781-1.8662107-15.2304688,4.03125-20.2753906c4.4599609-3.8173828,10.8408203-4.9550781,16.4306641-2.9736328    l9.3876972-9.3876953c-1.9775391-5.5898438-0.8408203-11.9707022,2.9746094-16.4306641    c5.0449219-5.8984375,13.3828125-7.5566406,20.2744141-4.03125c0.2851563,0.1455078,0.4833984,0.4189453,0.5332031,0.7353516    c0.0498047,0.3154297-0.0546875,0.6357422-0.28125,0.8623047L47.9203491,16.6759033    c-0.7216797,0.7216797-1.1191406,1.6806641-1.1191406,2.7011719s0.3974609,1.9794922,1.1191406,2.7011719    c1.4892578,1.4892578,3.9121094,1.4912109,5.4033203,0l10.2539063-10.2539053    c0.2255859-0.2265625,0.546875-0.3271484,0.8623047-0.28125c0.3164063,0.0498047,0.5898438,0.2480469,0.7353516,0.5332031    c3.3017578,6.4580069,2.0751953,14.2421865-3.0527344,19.3701172c-4.5771484,4.578125-11.3476563,6.0683594-17.4150391,3.8847656    l-9.3759766,9.3759766c2.1816406,6.0693359,0.6904297,12.8398438-3.8857441,17.4160156    C28.23773,65.3311768,23.9896832,67.0118408,19.6771832,67.0128174z M14.2592144,63.9708252    c5.4091797,2.1523438,11.59375,0.9169922,15.7724609-3.2617188c4.165041-4.1650391,5.42383-10.3964844,3.2080097-15.8759766    c-0.1503906-0.3720703-0.0644531-0.7978516,0.2197266-1.0820313l10.2919922-10.2919922    c0.2851563-0.2841797,0.7119141-0.3720703,1.0820313-0.2197266c5.4775391,2.2167969,11.7089844,0.9570313,15.875-3.2070313    c4.1806641-4.1806641,5.4140625-10.3671875,3.2626953-15.7734365l-9.2333984,9.2333975    c-2.2705078,2.2695313-5.9628906,2.2675781-8.2314453,0c-1.0996094-1.0986328-1.7050781-2.5605469-1.7050781-4.1152344    s0.6054688-3.0166016,1.7050781-4.1152334l9.2333984-9.2333984c-5.7919922-2.3076172-12.4375-0.7080078-16.5722656,4.1279297    c-3.4794922,4.0673828-4.4228516,9.9589834-2.4023438,15.0097647c0.1484375,0.3710938,0.0615234,0.7949219-0.2216797,1.078125    L26.2435894,36.5440674c-0.2832031,0.2832031-0.7060547,0.3681641-1.0791016,0.2216797    c-5.0507813-2.0234375-10.9414063-1.078125-15.0087891,2.4013672c-4.8339844,4.1347656-6.4335938,10.78125-4.1279297,16.5732422    l9.2333984-9.2333984c2.2695313-2.2714844,5.9619141-2.2695313,8.2314453,0    c1.0996094,1.0986328,1.7050781,2.5605469,1.7050781,4.1152344s-0.6054688,3.0166016-1.7050781,4.1152344L14.2592144,63.9708252z"/></g></g>
</svg>