<svg xmlns="http://www.w3.org/2000/svg" xmlns:xlink="http://www.w3.org/1999/xlink" version="1.1" x="0px" y="0px" viewBox="0 0 50 62.5" style="enable-background:new 0 0 50 50;" xml:space="preserve"><style type="text/css">
	.st0{fill:none;stroke:#000000;stroke-width:2;stroke-miterlimit:10;}
	.st1{fill:none;stroke:#000000;stroke-width:2;stroke-miterlimit:10;stroke-dasharray:2,2;}
	.st2{fill:none;stroke:#000000;stroke-width:2;stroke-miterlimit:10;stroke-dasharray:2,2.3;}
	.st3{fill:none;stroke:#000000;stroke-width:2;stroke-miterlimit:10;stroke-dasharray:2,3.3;}
	.st4{fill:none;stroke:#000000;stroke-width:2;stroke-miterlimit:10;stroke-dasharray:2,2.5;}
	.st5{fill:none;stroke:#000000;stroke-width:2;stroke-miterlimit:10;stroke-dasharray:2,3.2;}
	.st6{fill:none;stroke:#000000;stroke-width:2;stroke-miterlimit:10;stroke-dasharray:2,1.8;}
	.st7{fill:none;stroke:#000000;stroke-width:2;stroke-miterlimit:10;stroke-dasharray:2,2.2;}
</style><g><path class="st0" d="M40.4,31.2c5-1.5,8.6-6.1,8.6-11.6v0C49,13,43.6,7.6,36.9,7.6H24.8c-6.7,0-12.1,5.4-12.1,12.1   v0c0,6.7,5.4,12.1,12.1,12.1H34"/><path class="st0" d="M9.6,18.8C4.6,20.3,1,24.9,1,30.3v0C1,37,6.4,42.4,13.1,42.4h12.1c6.7,0,12.1-5.4,12.1-12.1v0   c0-6.7-5.4-12.1-12.1-12.1H16"/></g>
</svg>