<svg xmlns="http://www.w3.org/2000/svg" xmlns:xlink="http://www.w3.org/1999/xlink" version="1.1" x="0px" y="0px" viewBox="0 0 70 87.5" style="enable-background:new 0 0 70 70;" xml:space="preserve"><style type="text/css">
	.st0{fill:none;stroke:#000000;stroke-width:2;stroke-linecap:round;stroke-linejoin:round;stroke-miterlimit:10;}
</style><g><g><g><path d="M36,27H4c-0.5522461,0-1-0.4477539-1-1V7c0-0.5522461,0.4477539-1,1-1h32c0.5522461,0,1,0.4477539,1,1v19     C37,26.5522461,36.5522461,27,36,27z M5,25h30V8H5V25z"/></g><g><path d="M25,33H15c-0.5522461,0-1-0.4477539-1-1s0.4477539-1,1-1h10c0.5522461,0,1,0.4477539,1,1S25.5522461,33,25,33z"/></g><g><path d="M20,32c-0.5522461,0-1-0.4477539-1-1v-5c0-0.5522461,0.4477539-1,1-1s1,0.4477539,1,1v5     C21,31.5522461,20.5522461,32,20,32z"/></g></g><g><g><path d="M66,58H34c-0.5522461,0-1-0.4477539-1-1V38c0-0.5522461,0.4477539-1,1-1h32c0.5522461,0,1,0.4477539,1,1v19     C67,57.5522461,66.5522461,58,66,58z M35,56h30V39H35V56z"/></g><g><path d="M55,64H45c-0.5522461,0-1-0.4477539-1-1s0.4477539-1,1-1h10c0.5522461,0,1,0.4477539,1,1S55.5522461,64,55,64z"/></g><g><path d="M50,63c-0.5522461,0-1-0.4477539-1-1v-5c0-0.5522461,0.4477539-1,1-1s1,0.4477539,1,1v5     C51,62.5522461,50.5522461,63,50,63z"/></g></g><g><g><path d="M43.9516602,23.6767578c-0.5522461,0-1-0.4477539-1-1v-7.484375c0-0.5522461,0.4477539-1,1-1h7.4848633     c0.5522461,0,1,0.4477539,1,1s-0.4477539,1-1,1h-6.4848633v6.484375     C44.9516602,23.2290039,44.5039063,23.6767578,43.9516602,23.6767578z"/></g><g><path d="M59.5327148,31.7729492c-0.2558594,0-0.5117188-0.0976563-0.7070313-0.2929688L43.2446289,15.8994141     c-0.390625-0.390625-0.390625-1.0234375,0-1.4140625s1.0234375-0.390625,1.4140625,0L60.2397461,30.065918     c0.390625,0.390625,0.390625,1.0234375,0,1.4140625C60.0444336,31.675293,59.7885742,31.7729492,59.5327148,31.7729492z"/></g></g><g><g><path d="M24.7905273,55.7905273h-7.4848633c-0.5522461,0-1-0.4477539-1-1s0.4477539-1,1-1h6.4848633v-6.4848633     c0-0.5522461,0.4477539-1,1-1s1,0.4477539,1,1v7.4848633C25.7905273,55.3427734,25.3427734,55.7905273,24.7905273,55.7905273z"/></g><g><path d="M24.7905273,55.7905273c-0.2558594,0-0.5117188-0.0976563-0.7070313-0.2929688L8.5024414,39.9165039     c-0.390625-0.390625-0.390625-1.0234375,0-1.4140625s1.0234375-0.390625,1.4140625,0l15.5810547,15.5810547     c0.390625,0.390625,0.390625,1.0234375,0,1.4140625C25.3022461,55.6928711,25.0463867,55.7905273,24.7905273,55.7905273z"/></g></g></g>
</svg>