<svg xmlns="http://www.w3.org/2000/svg" xmlns:xlink="http://www.w3.org/1999/xlink" version="1.1" x="0px" y="0px" viewBox="0 0 100 125" style="enable-background:new 0 0 100 100;" xml:space="preserve"><g><path d="M37.477,23.702c1.085,5.513-1.292,7.175-1.292,7.175L29.26,35.23c-2.76,1.635-1.257,5.057-1.257,5.057   C38.824,63.775,50.794,70.843,55.151,73.98c3.153,2.27,5.073,0.653,5.073,0.653l8.92-7.44c3.168-3.104,5.582-0.969,5.582-0.969   l17.598,13.152c2.994,2.098,1.65,6.356-0.508,10.028c-2.135,3.63-11.035,12.284-22.094,10.292   c-11.062-1.99-30.721-9.855-44.159-30.007C11.992,49.34,7.267,31.523,7.267,31.523C1.521,13.004,16.27,3.143,16.27,3.143   c11.608-7.318,17.04,0.475,17.04,0.475S36.396,18.186,37.477,23.702z"/></g>
</svg>